HIERARCHY
ROOT Hips
{
  OFFSET 15.0755 103.719 48.3499
  CHANNELS 6 Xposition Yposition Zposition Zrotation Xrotation Yrotation
  JOINT RightUpLeg
  {
    OFFSET -8.9458 -8.66707 0.101652
    CHANNELS 3 Zrotation Xrotation Yrotation
    JOINT RightLeg
    {
      OFFSET 0 -44.4227 1.3727
      CHANNELS 3 Zrotation Xrotation Yrotation
      JOINT RightFoot
      {
        OFFSET 0.253549 -42.0924 -1.46059
        CHANNELS 3 Zrotation Xrotation Yrotation
        JOINT RightToes
        {
          OFFSET 0.04 -4.41509 8.4991
          CHANNELS 3 Zrotation Xrotation Yrotation
          End Site
          {
            OFFSET -0.08 -0.137448 9.77979
          }
        }
      }
    }
  }
  JOINT Spine
  {
    OFFSET 0 11.8905 0
    CHANNELS 3 Zrotation Xrotation Yrotation
    JOINT Spine1
    {
      OFFSET 0 25.6574 0.127663
      CHANNELS 3 Zrotation Xrotation Yrotation
      JOINT HEad
      {
        OFFSET 0 8.73416 0.011341
        CHANNELS 3 Zrotation Xrotation Yrotation
        End Site
        {
          OFFSET -0.29 12.7742 2.51395
        }
      }
      JOINT LeftShoulder1
      {
        OFFSET 8.99 -0.362252 -0.22
        CHANNELS 3 Zrotation Xrotation Yrotation
        JOINT LeftArm
        {
          OFFSET 10.2827 -0.00338 0.322123
          CHANNELS 3 Zrotation Xrotation Yrotation
          JOINT LeftForeArm
          {
            OFFSET 32.7669 0.099144 -1.42434
            CHANNELS 3 Zrotation Xrotation Yrotation
            JOINT LeftHand
            {
              OFFSET 27.5643 0.085362 1.02216
              CHANNELS 3 Zrotation Xrotation Yrotation
              End Site
              {
                OFFSET 16.7443 -0.6 1.50291
              }
            }
          }
        }
      }
      JOINT RightShoulder
      {
        OFFSET -8.99 -0.362252 -0.22
        CHANNELS 3 Zrotation Xrotation Yrotation
        JOINT RightArm
        {
          OFFSET -10.2827 -0.00338 0.322123
          CHANNELS 3 Zrotation Xrotation Yrotation
          JOINT RightForeArm
          {
            OFFSET -32.8971 0.099144 -1.42434
            CHANNELS 3 Zrotation Xrotation Yrotation
            JOINT RightHand
            {
              OFFSET -27.4921 0.085362 1.02216
              CHANNELS 3 Zrotation Xrotation Yrotation
              End Site
              {
                OFFSET -16.6312 -0.6 1.50291
              }
            }
          }
        }
      }
    }
  }
  JOINT LeftUpLeg
  {
    OFFSET 8.9458 -8.66707 0.101652
    CHANNELS 3 Zrotation Xrotation Yrotation
    JOINT LeftLeg
    {
      OFFSET 0 -44.4227 1.3727
      CHANNELS 3 Zrotation Xrotation Yrotation
      JOINT LeftFoot
      {
        OFFSET -0.253549 -42.0924 -1.46059
        CHANNELS 3 Zrotation Xrotation Yrotation
        JOINT LeftToes
        {
          OFFSET -0.04 -4.41509 8.4991
          CHANNELS 3 Zrotation Xrotation Yrotation
          End Site
          {
            OFFSET 0.08 -0.047448 9.77979
          }
        }
      }
    }
  }
}
MOTION
Frames:	17
Frame Time:	0.0166667
29.1739 102.167 37.3693 5.23362 -17.9703 9.65979 -4.23471 -19.4228 49.9068 33.3154 20.7397 -77.6889 11.4697 -6.29614 1.48688 0.0462048 0.000533403 0.662642 4.42122 29.7244 32.793 -0.0255491 -1.51788e-008 -0.0654588 -2.93736 9.52302 -12.8903 -0 -1.59028e-015 -0 -93.8419 -47.0002 -15.5498 -79.3547 13.0028 -10.6074 -55.5122 17.8889 -13.2235 12.0588 27.5084 75.2632 -170.023 -4.15351 -113.649 126.319 18.8056 -7.78221 -38.2438 42.2991 38.3695 29.0719 10.3983 21.205 -24.7487 58.0426 -13.9235 30.1251 2.56039 2.48175 -1.31925e-009 1.56e-007 -4.83505e-009 
29.1677 102.167 37.3718 5.27384 -17.9531 9.79568 -4.27947 -19.4292 49.9137 33.3418 20.7494 -77.7716 11.5142 -6.31701 1.442 0.0462048 0.000533403 0.662642 4.42122 29.7244 32.793 -0.0255491 -1.51788e-008 -0.0654588 -2.93736 9.52302 -12.8903 3.18055e-015 0 -0 -94.3662 -47.0563 -16.366 -78.8758 12.3106 -10.379 -55.4746 18.2651 -13.1139 12.0759 27.5447 75.0049 -170.004 -4.37562 -113.774 126.319 18.8056 -7.78221 -38.2438 42.2991 38.3695 29.1082 10.3498 21.2228 -24.7566 58.0567 -13.9917 30.1885 2.59151 2.41634 -1.31925e-009 1.56e-007 -4.83506e-009 
29.1501 102.168 37.3789 5.39054 -17.9046 10.178 -4.40554 -19.4461 49.9331 33.416 20.7765 -78.004 11.6394 -6.3756 1.31542 0.0462048 0.000533403 0.662642 4.42122 29.7244 32.793 -0.0255491 -1.51788e-008 -0.0654588 -2.93736 9.52302 -12.8903 -1.59028e-015 -1.59028e-015 3.18055e-015 -95.855 -47.1789 -18.6701 -77.4976 10.3907 -9.74512 -55.3769 19.3255 -12.8061 12.124 27.6466 74.2783 -169.954 -5.00172 -114.123 126.319 18.8056 -7.78221 -38.2438 42.2991 38.3695 29.2097 10.2137 21.2734 -24.7787 58.0963 -14.1838 30.3666 2.67925 2.23184 -1.31926e-009 1.56e-007 -4.83505e-009 
29.123 102.169 37.3898 5.57078 -17.8296 10.7684 -4.60058 -19.4693 49.9628 33.5306 20.8184 -78.3644 11.8333 -6.46527 1.12154 0.0462048 0.000533403 0.662642 4.42122 29.7244 32.793 -0.0248277 -1.51788e-008 -0.0654588 -2.93736 9.52302 -12.8903 -4.77083e-015 -1.59028e-015 -0 -98.1855 -47.2641 -22.2424 -75.2816 7.50648 -8.78965 -55.249 20.9694 -12.3313 12.1982 27.8032 73.155 -169.889 -5.97226 -114.657 126.319 18.8056 -7.78221 -38.2438 42.2991 38.3695 29.3647 10.0042 21.3528 -24.8123 58.157 -14.4811 30.6413 2.81533 1.94541 -1.31925e-009 1.56e-007 -4.83505e-009 
28.5872 102.346 37.4172 4.064 -19.3412 4.09472 -0.681873 -18.1655 52.4474 31.7695 21.8646 -75.1412 12.298 -6.81608 0.82347 0.0462048 0.000533403 0.662642 0.910312 30.9174 34.39 -0.0161697 -1.51788e-008 -0.0549592 -0.736165 7.42293 -12.659 -2.38542e-015 0 -6.36111e-015 -113.479 -43.727 -35.9242 -76.2154 1.69674 -8.42266 -53.5388 24.7335 -12.744 13.8161 25.2995 64.7268 -172.553 -6.84485 -119.026 131.002 20.2311 -10.3945 -33.8188 39.4969 38.6373 29.7696 12.4305 22.332 -18.8811 59.2323 -24.5325 25.4532 2.50729 1.43814 -1.31926e-009 1.56e-007 -4.83505e-009 
28.1086 102.326 37.3653 2.6744 -20.4907 -1.4088 2.26945 -17.043 52.8623 30.2598 23.4525 -71.4047 12.901 -7.36649 0.603031 0.0462048 0.000533403 0.662642 -2.502 31.1872 34.1574 -0.0103558 -1.51788e-008 -0.0459095 2.32901 5.6834 -12.3794 0 0 -3.18055e-015 -127.183 -38.8763 -49.5186 -76.8235 -4.2743 -8.24801 -51.5083 28.2433 -12.9327 14.7252 22.4779 55.9111 -173.512 -9.73245 -128.287 134.077 25.891 -13.5813 -28.9064 22.5489 29.1105 29.8194 13.7183 21.8056 -15.8507 60.4963 -28.5121 20.9363 3.12993 0.781088 -1.31926e-009 1.56e-007 -4.83506e-009 
27.7248 102.24 37.2198 1.44589 -21.357 -5.83703 4.38206 -15.9965 51.4258 28.4663 25.3039 -66.8784 13.5949 -7.90379 0.370305 0.0462048 0.000533403 0.662642 -5.65939 30.7342 32.1911 -0.0069813 -1.51788e-008 -0.0333196 6.1986 4.69794 -12.1287 -1.59028e-015 -3.18055e-015 6.36111e-015 -138.15 -32.8584 -61.8169 -77.5321 -9.65576 -8.12177 -50.7083 32.7451 -11.8928 7.64991 13.2365 55.3025 -163.873 -10.3952 -135.135 136.341 29.1808 -15.855 -26.5193 20.3138 30.459 29.7226 14.406 19.6985 -17.5937 60.4668 -26.0342 17.3065 3.5083 0.322674 -1.31925e-009 1.56e-007 -4.83505e-009 
27.4571 102.121 37.0314 0.409256 -22.0007 -9.28871 5.74975 -15.077 48.3434 26.2999 27.3188 -61.4967 14.3719 -8.44306 0.135344 0.0462048 0.000533403 0.662642 -8.43525 29.8124 28.5722 0.00329708 -1.51788e-008 -0.0292502 9.86477 4.84304 -10.4144 3.97569e-016 0 6.36111e-015 -146.738 -25.2114 -73.2307 -77.6262 -14.5204 -7.78873 -50.2749 36.1762 -9.67535 7.49262 11.8158 43.804 -166.692 -16.5585 -152.491 137.456 31.0294 -17.4876 -25.784 13.2772 26.4125 29.4308 14.7045 16.2718 -22.4865 59.5101 -19.1949 14.8678 3.91476 -0.141701 -1.31926e-009 1.56e-007 -4.83505e-009 
27.2936 102.012 36.8477 -0.412879 -22.4671 -11.8571 6.45571 -14.2905 43.7962 23.6763 29.3474 -55.1961 15.1822 -8.98015 -0.100034 0.0462048 0.000533403 0.662642 -10.8081 28.6378 23.4407 0.00950765 0.00492998 -0.0263542 13.0666 6.14166 -7.42512 -4.41391e-032 1.59028e-015 1.59028e-015 -152.564 -15.9862 -83.6441 -76.5521 -19.1171 -7.1447 -50.4929 39.752 -7.19623 7.35922 10.8451 31.716 -172.983 -22.3856 -173.318 137.464 32.1475 -18.4976 -24.4213 13.7456 27.8426 29.0087 14.774 11.6143 -28.9788 57.5325 -9.89658 13.1029 4.23883 -0.572296 -1.31926e-009 1.56e-007 -4.83505e-009 
27.2035 101.944 36.7152 -1.00557 -22.7959 -13.6277 6.56704 -13.6045 37.9366 20.5602 31.214 -47.9455 15.9625 -9.50397 -0.333693 0.0462048 0.000533403 0.662642 -12.7966 27.4151 16.9725 0.0118563 0.01705 -0.0243741 15.5102 8.44988 -3.29002 3.23025e-015 -7.95139e-016 -9.93923e-017 -155.278 -5.89848 -93.1716 -74.4613 -23.9089 -6.38492 -37.5515 49.9102 3.67064 7.88294 10.432 19.1104 173.117 -28.7298 159.362 133.252 36.4251 -16.5746 -24.3882 11.0274 25.8406 28.489 14.7717 5.79968 -35.7746 54.376 0.31165 11.8496 4.48074 -0.95875 -1.31926e-009 1.56e-007 -4.83505e-009 
27.1293 101.94 36.6724 -1.36677 -23.026 -14.6827 6.3772 -12.9206 32.1077 17.3792 32.5155 -41.0701 16.7423 -9.95805 -0.554413 0.0462048 0.000533403 0.662642 -14.3944 26.4328 9.46304 0.0131802 0.04405 -0.0239681 16.3941 11.7817 3.3253 1.39149e-015 7.95139e-016 1.59028e-015 -154.886 4.09293 -102.09 -67.6169 -27.9732 -7.35302 -39.3897 53.4336 7.96035 9.37445 9.99473 6.07088 151.813 -27.8525 126.81 123.733 37.9643 -10.2039 -23.0251 16.6488 28.8726 27.9945 14.8785 -1.17519 -41.9644 49.8928 10.3179 10.7978 4.62401 -1.28839 -1.31926e-009 1.56e-007 -4.83505e-009 
27.1109 101.884 36.6908 -1.49695 -23.1806 -15.096 5.93848 -12.4743 26.4034 14.4431 33.6237 -34.7976 17.5811 -10.4254 -0.689418 0.0462048 0.000533403 0.662642 -15.6509 25.6995 2.62521 0.0135931 0.00785004 0.082303 15.9906 15.1334 10.5833 1.98785e-016 7.95139e-016 3.18055e-015 -152.249 9.28027 -110.239 -61.6746 -31.7157 -8.32199 -36.5622 59.6692 15.7014 11.163 9.36738 -5.24642 136.776 -18.5583 103.574 116.88 38.3299 -4.89403 -22.644 18.1758 28.7643 28.021 14.8309 -8.29726 -47.5511 44.5719 22.3758 8.49402 5.23665 -1.51744 -1.31926e-009 1.56e-007 -4.83506e-009 
27.0817 101.886 36.8319 -0.864667 -22.786 -12.9734 4.5255 -12.7634 19.144 11.6252 34.3578 -29.0672 18.4661 -10.8 -0.77263 0.0462048 0.000533403 0.662642 -15.8836 24.9343 -5.23096 0.0133272 0.00639004 0.088763 14.4815 18.12 18.1436 3.97569e-015 -7.95139e-016 -0 -149.471 10.6553 -116.96 -53.0944 -34.9644 -10.5402 -42.4123 59.4533 16.438 13.2354 8.59918 -15.179 127.926 -7.07167 88.1369 112.009 38.054 -0.82873 -21.6525 20.4641 29.9086 27.9962 13.3592 -16.3436 -52.5198 38.7371 34.577 9.25564 5.53071 -1.74238 -1.31925e-009 1.56e-007 -4.83505e-009 
27.0097 102.041 37.0502 0.424452 -21.9403 -8.81146 2.28858 -13.2438 11.857 9.49872 34.2753 -25.1796 19.4363 -10.9022 -0.849111 0.0462048 0.000533403 0.662642 -15.356 24.8028 -12.4919 0.0123655 0.0502602 0.17672 12.6282 19.4949 24.6294 -0 -7.95139e-016 -0 -149.257 7.15592 -121.785 -46.9826 -36.2333 -11.765 -38.7931 68.5022 27.2759 14.9261 7.3569 -22.2765 123.443 1.82876 79.0713 109.289 32.8166 2.37941 -21.7 25.4028 30.3544 27.6389 10.9478 -24.9231 -55.144 31.4118 43.6566 11.6885 5.16305 -2.0404 -1.31925e-009 1.56e-007 -4.83506e-009 
26.9017 102.115 37.3782 2.18806 -20.6491 -3.08702 -0.690583 -14.1102 4.61967 8.3312 34.4472 -23.1133 20.5678 -11.1245 -0.751262 0.0462048 0.000533403 0.662642 -14.1783 24.9928 -19.2002 0.0112074 0.0403502 0.152922 10.694 19.6632 30.257 -8.82781e-032 7.95139e-016 6.36111e-015 -151.227 1.71406 -125.272 -42.4065 -35.4996 -12.5136 -40.8453 58.9163 10.2961 21.938 2.37187 -36.3802 115.782 14.537 67.5341 107.801 29.8882 4.03042 -21.1407 28.7124 31.1968 27.7689 7.32449 -33.2664 -57.8167 26.983 50.173 10.0575 5.95917 -2.03936 -1.31925e-009 1.56e-007 -4.83506e-009 
26.7467 102.292 37.7546 4.2204 -18.8978 3.78017 -4.31766 -14.7433 -2.48376 7.77582 34.3133 -22.4915 21.7764 -11.1281 -0.605351 0.0462048 0.000533403 0.662642 -12.4925 25.2087 -25.4022 0.00982356 0.02502 0.132525 8.84256 18.8468 34.9964 -1.59028e-015 1.59028e-015 -3.18055e-015 -154.702 -4.5608 -127.616 -39.6513 -32.6796 -13.4798 -41.4607 69.787 27.1818 22.2777 1.74065 -37.771 114.96 16.1928 65.8122 107.517 28.491 4.63619 -12.9341 13.6809 21.5491 26.8287 2.95312 -40.381 -59.4912 23.7002 53.755 12.9282 5.90254 -1.99037 -1.31925e-009 1.56e-007 -4.83505e-009 
26.6024 102.51 38.0875 6.04277 -16.9146 10.5654 -8.02327 -14.8834 -9.54534 7.33373 34.0634 -22.1111 22.9445 -10.9688 -0.401323 0.0462048 0.000533403 0.662642 -10.6462 25.1856 -31.4504 0.008379 0.00141002 0.0394774 6.93333 17.76 39.5286 7.95139e-016 -7.95139e-016 1.59028e-014 -159 -11.0402 -129.396 -38.5637 -28.3376 -15.2758 -38.2372 73.1494 29.7272 23.4947 -0.0540356 -41.6206 113.564 19.7158 61.6114 107.388 28.4396 5.04693 -10.2176 7.12134 17.7696 25.4303 -1.51293 -47.3512 -60.5055 20.1171 56.8224 15.2414 5.94305 -1.87724 -1.31925e-009 1.56e-007 -4.83505e-009 
